0
SECTION
2
HEADER
9
$ACADVER
1
AC1006
9
$INSUNITS
70
6
0
ENDSEC
0
SECTION
2
ENTITIES
0
POLYLINE
8
0
62
1
66
1
10
0
20
0
30
0
70
8
0
VERTEX
8
0
62
1
10
-3.5527137e-15
20
23.220779
30
0
70
32
0
VERTEX
8
0
62
1
10
0
20
2.8571429
30
0
70
32
0
SEQEND
8
0
0
POLYLINE
8
0
62
1
66
1
10
0
20
0
30
0
70
8
0
VERTEX
8
0
62
1
10
0
20
2.8571429
30
0
70
32
0
VERTEX
8
0
62
1
10
19.794866
20
0
30
0
70
32
0
SEQEND
8
0
0
POLYLINE
8
0
62
1
66
1
10
0
20
0
30
0
70
8
0
VERTEX
8
0
62
1
10
39.589733
20
2.8571429
30
0
70
32
0
VERTEX
8
0
62
1
10
19.794866
20
0
30
0
70
32
0
SEQEND
8
0
0
POLYLINE
8
0
62
1
66
1
10
0
20
0
30
0
70
8
0
VERTEX
8
0
62
1
10
39.589733
20
23.220779
30
0
70
32
0
VERTEX
8
0
62
1
10
39.589733
20
2.8571429
30
0
70
32
0
SEQEND
8
0
0
POLYLINE
8
0
62
1
66
1
10
0
20
0
30
0
70
8
0
VERTEX
8
0
62
1
10
39.589733
20
2.8571429
30
0
70
32
0
VERTEX
8
0
62
1
10
59.384599
20
0
30
0
70
32
0
SEQEND
8
0
0
POLYLINE
8
0
62
1
66
1
10
0
20
0
30
0
70
8
0
VERTEX
8
0
62
1
10
79.179465
20
2.8571429
30
0
70
32
0
VERTEX
8
0
62
1
10
59.384599
20
0
30
0
70
32
0
SEQEND
8
0
0
POLYLINE
8
0
62
1
66
1
10
0
20
0
30
0
70
8
0
VERTEX
8
0
62
1
10
79.179465
20
23.220779
30
0
70
32
0
VERTEX
8
0
62
1
10
79.179465
20
2.8571429
30
0
70
32
0
SEQEND
8
0
0
POLYLINE
8
0
62
1
66
1
10
0
20
0
30
0
70
8
0
VERTEX
8
0
62
1
10
79.179465
20
2.8571429
30
0
70
32
0
VERTEX
8
0
62
1
10
98.974332
20
0
30
0
70
32
0
SEQEND
8
0
0
POLYLINE
8
0
62
1
66
1
10
0
20
0
30
0
70
8
0
VERTEX
8
0
62
1
10
118.7692
20
2.8571429
30
0
70
32
0
VERTEX
8
0
62
1
10
98.974332
20
0
30
0
70
32
0
SEQEND
8
0
0
POLYLINE
8
0
62
1
66
1
10
0
20
0
30
0
70
8
0
VERTEX
8
0
62
1
10
118.7692
20
23.220779
30
0
70
32
0
VERTEX
8
0
62
1
10
118.7692
20
2.8571429
30
0
70
32
0
SEQEND
8
0
0
POLYLINE
8
0
62
1
66
1
10
0
20
0
30
0
70
8
0
VERTEX
8
0
62
1
10
118.7692
20
2.8571429
30
0
70
32
0
VERTEX
8
0
62
1
10
138.56406
20
0
30
0
70
32
0
SEQEND
8
0
0
POLYLINE
8
0
62
1
66
1
10
0
20
0
30
0
70
8
0
VERTEX
8
0
62
1
10
158.35893
20
2.8571429
30
0
70
32
0
VERTEX
8
0
62
1
10
138.56406
20
0
30
0
70
32
0
SEQEND
8
0
0
POLYLINE
8
0
62
1
66
1
10
0
20
0
30
0
70
8
0
VERTEX
8
0
62
1
10
158.35893
20
23.220779
30
0
70
32
0
VERTEX
8
0
62
1
10
158.35893
20
2.8571429
30
0
70
32
0
SEQEND
8
0
0
POLYLINE
8
0
62
1
66
1
10
0
20
0
30
0
70
8
0
VERTEX
8
0
62
1
10
158.35893
20
2.8571429
30
0
70
32
0
VERTEX
8
0
62
1
10
178.1538
20
0
30
0
70
32
0
SEQEND
8
0
0
POLYLINE
8
0
62
1
66
1
10
0
20
0
30
0
70
8
0
VERTEX
8
0
62
1
10
197.94866
20
2.8571429
30
0
70
32
0
VERTEX
8
0
62
1
10
178.1538
20
0
30
0
70
32
0
SEQEND
8
0
0
POLYLINE
8
0
62
1
66
1
10
0
20
0
30
0
70
8
0
VERTEX
8
0
62
1
10
197.94866
20
23.220779
30
0
70
32
0
VERTEX
8
0
62
1
10
197.94866
20
2.8571429
30
0
70
32
0
SEQEND
8
0
0
POLYLINE
8
0
62
1
66
1
10
0
20
0
30
0
70
8
0
VERTEX
8
0
62
1
10
-3.5527137e-15
20
51.220779
30
0
70
32
0
VERTEX
8
0
62
1
10
-3.5527137e-15
20
30.857143
30
0
70
32
0
SEQEND
8
0
0
POLYLINE
8
0
62
1
66
1
10
0
20
0
30
0
70
8
0
VERTEX
8
0
62
1
10
-3.5527137e-15
20
30.857143
30
0
70
32
0
VERTEX
8
0
62
1
10
19.794866
20
28
30
0
70
32
0
SEQEND
8
0
0
POLYLINE
8
0
62
1
66
1
10
0
20
0
30
0
70
8
0
VERTEX
8
0
62
1
10
39.589733
20
30.857143
30
0
70
32
0
VERTEX
8
0
62
1
10
19.794866
20
28
30
0
70
32
0
SEQEND
8
0
0
POLYLINE
8
0
62
1
66
1
10
0
20
0
30
0
70
8
0
VERTEX
8
0
62
1
10
39.589733
20
51.220779
30
0
70
32
0
VERTEX
8
0
62
1
10
39.589733
20
30.857143
30
0
70
32
0
SEQEND
8
0
0
POLYLINE
8
0
62
1
66
1
10
0
20
0
30
0
70
8
0
VERTEX
8
0
62
1
10
39.589733
20
30.857143
30
0
70
32
0
VERTEX
8
0
62
1
10
59.384599
20
28
30
0
70
32
0
SEQEND
8
0
0
POLYLINE
8
0
62
1
66
1
10
0
20
0
30
0
70
8
0
VERTEX
8
0
62
1
10
79.179465
20
30.857143
30
0
70
32
0
VERTEX
8
0
62
1
10
59.384599
20
28
30
0
70
32
0
SEQEND
8
0
0
POLYLINE
8
0
62
1
66
1
10
0
20
0
30
0
70
8
0
VERTEX
8
0
62
1
10
79.179465
20
51.220779
30
0
70
32
0
VERTEX
8
0
62
1
10
79.179465
20
30.857143
30
0
70
32
0
SEQEND
8
0
0
POLYLINE
8
0
62
1
66
1
10
0
20
0
30
0
70
8
0
VERTEX
8
0
62
1
10
79.179465
20
30.857143
30
0
70
32
0
VERTEX
8
0
62
1
10
98.974332
20
28
30
0
70
32
0
SEQEND
8
0
0
POLYLINE
8
0
62
1
66
1
10
0
20
0
30
0
70
8
0
VERTEX
8
0
62
1
10
118.7692
20
30.857143
30
0
70
32
0
VERTEX
8
0
62
1
10
98.974332
20
28
30
0
70
32
0
SEQEND
8
0
0
POLYLINE
8
0
62
1
66
1
10
0
20
0
30
0
70
8
0
VERTEX
8
0
62
1
10
118.7692
20
51.220779
30
0
70
32
0
VERTEX
8
0
62
1
10
118.7692
20
30.857143
30
0
70
32
0
SEQEND
8
0
0
POLYLINE
8
0
62
1
66
1
10
0
20
0
30
0
70
8
0
VERTEX
8
0
62
1
10
118.7692
20
30.857143
30
0
70
32
0
VERTEX
8
0
62
1
10
138.56406
20
28
30
0
70
32
0
SEQEND
8
0
0
POLYLINE
8
0
62
1
66
1
10
0
20
0
30
0
70
8
0
VERTEX
8
0
62
1
10
158.35893
20
30.857143
30
0
70
32
0
VERTEX
8
0
62
1
10
138.56406
20
28
30
0
70
32
0
SEQEND
8
0
0
POLYLINE
8
0
62
1
66
1
10
0
20
0
30
0
70
8
0
VERTEX
8
0
62
1
10
158.35893
20
51.220779
30
0
70
32
0
VERTEX
8
0
62
1
10
158.35893
20
30.857143
30
0
70
32
0
SEQEND
8
0
0
POLYLINE
8
0
62
1
66
1
10
0
20
0
30
0
70
8
0
VERTEX
8
0
62
1
10
158.35893
20
30.857143
30
0
70
32
0
VERTEX
8
0
62
1
10
178.1538
20
28
30
0
70
32
0
SEQEND
8
0
0
POLYLINE
8
0
62
1
66
1
10
0
20
0
30
0
70
8
0
VERTEX
8
0
62
1
10
197.94866
20
30.857143
30
0
70
32
0
VERTEX
8
0
62
1
10
178.1538
20
28
30
0
70
32
0
SEQEND
8
0
0
POLYLINE
8
0
62
1
66
1
10
0
20
0
30
0
70
8
0
VERTEX
8
0
62
1
10
197.94866
20
51.220779
30
0
70
32
0
VERTEX
8
0
62
1
10
197.94866
20
30.857143
30
0
70
32
0
SEQEND
8
0
0
POLYLINE
8
0
62
1
66
1
10
0
20
0
30
0
70
8
0
VERTEX
8
0
62
1
10
0
20
79.220779
30
0
70
32
0
VERTEX
8
0
62
1
10
-3.5527137e-15
20
58.857143
30
0
70
32
0
SEQEND
8
0
0
POLYLINE
8
0
62
1
66
1
10
0
20
0
30
0
70
8
0
VERTEX
8
0
62
1
10
-3.5527137e-15
20
58.857143
30
0
70
32
0
VERTEX
8
0
62
1
10
19.794866
20
56
30
0
70
32
0
SEQEND
8
0
0
POLYLINE
8
0
62
1
66
1
10
0
20
0
30
0
70
8
0
VERTEX
8
0
62
1
10
39.589733
20
58.857143
30
0
70
32
0
VERTEX
8
0
62
1
10
19.794866
20
56
30
0
70
32
0
SEQEND
8
0
0
POLYLINE
8
0
62
1
66
1
10
0
20
0
30
0
70
8
0
VERTEX
8
0
62
1
10
39.589733
20
79.220779
30
0
70
32
0
VERTEX
8
0
62
1
10
39.589733
20
58.857143
30
0
70
32
0
SEQEND
8
0
0
POLYLINE
8
0
62
1
66
1
10
0
20
0
30
0
70
8
0
VERTEX
8
0
62
1
10
39.589733
20
58.857143
30
0
70
32
0
VERTEX
8
0
62
1
10
59.384599
20
56
30
0
70
32
0
SEQEND
8
0
0
POLYLINE
8
0
62
1
66
1
10
0
20
0
30
0
70
8
0
VERTEX
8
0
62
1
10
79.179465
20
58.857143
30
0
70
32
0
VERTEX
8
0
62
1
10
59.384599
20
56
30
0
70
32
0
SEQEND
8
0
0
POLYLINE
8
0
62
1
66
1
10
0
20
0
30
0
70
8
0
VERTEX
8
0
62
1
10
79.179465
20
79.220779
30
0
70
32
0
VERTEX
8
0
62
1
10
79.179465
20
58.857143
30
0
70
32
0
SEQEND
8
0
0
POLYLINE
8
0
62
1
66
1
10
0
20
0
30
0
70
8
0
VERTEX
8
0
62
1
10
79.179465
20
58.857143
30
0
70
32
0
VERTEX
8
0
62
1
10
98.974332
20
56
30
0
70
32
0
SEQEND
8
0
0
POLYLINE
8
0
62
1
66
1
10
0
20
0
30
0
70
8
0
VERTEX
8
0
62
1
10
118.7692
20
58.857143
30
0
70
32
0
VERTEX
8
0
62
1
10
98.974332
20
56
30
0
70
32
0
SEQEND
8
0
0
POLYLINE
8
0
62
1
66
1
10
0
20
0
30
0
70
8
0
VERTEX
8
0
62
1
10
118.7692
20
79.220779
30
0
70
32
0
VERTEX
8
0
62
1
10
118.7692
20
58.857143
30
0
70
32
0
SEQEND
8
0
0
POLYLINE
8
0
62
1
66
1
10
0
20
0
30
0
70
8
0
VERTEX
8
0
62
1
10
118.7692
20
58.857143
30
0
70
32
0
VERTEX
8
0
62
1
10
138.56406
20
56
30
0
70
32
0
SEQEND
8
0
0
POLYLINE
8
0
62
1
66
1
10
0
20
0
30
0
70
8
0
VERTEX
8
0
62
1
10
158.35893
20
58.857143
30
0
70
32
0
VERTEX
8
0
62
1
10
138.56406
20
56
30
0
70
32
0
SEQEND
8
0
0
POLYLINE
8
0
62
1
66
1
10
0
20
0
30
0
70
8
0
VERTEX
8
0
62
1
10
158.35893
20
79.220779
30
0
70
32
0
VERTEX
8
0
62
1
10
158.35893
20
58.857143
30
0
70
32
0
SEQEND
8
0
0
POLYLINE
8
0
62
1
66
1
10
0
20
0
30
0
70
8
0
VERTEX
8
0
62
1
10
158.35893
20
58.857143
30
0
70
32
0
VERTEX
8
0
62
1
10
178.1538
20
56
30
0
70
32
0
SEQEND
8
0
0
POLYLINE
8
0
62
1
66
1
10
0
20
0
30
0
70
8
0
VERTEX
8
0
62
1
10
197.94866
20
58.857143
30
0
70
32
0
VERTEX
8
0
62
1
10
178.1538
20
56
30
0
70
32
0
SEQEND
8
0
0
POLYLINE
8
0
62
1
66
1
10
0
20
0
30
0
70
8
0
VERTEX
8
0
62
1
10
197.94866
20
79.220779
30
0
70
32
0
VERTEX
8
0
62
1
10
197.94866
20
58.857143
30
0
70
32
0
SEQEND
8
0
0
POLYLINE
8
0
62
1
66
1
10
0
20
0
30
0
70
8
0
VERTEX
8
0
62
1
10
0
20
107.22078
30
0
70
32
0
VERTEX
8
0
62
1
10
-3.5527137e-15
20
86.857143
30
0
70
32
0
SEQEND
8
0
0
POLYLINE
8
0
62
1
66
1
10
0
20
0
30
0
70
8
0
VERTEX
8
0
62
1
10
-3.5527137e-15
20
86.857143
30
0
70
32
0
VERTEX
8
0
62
1
10
19.794866
20
84
30
0
70
32
0
SEQEND
8
0
0
POLYLINE
8
0
62
1
66
1
10
0
20
0
30
0
70
8
0
VERTEX
8
0
62
1
10
39.589733
20
86.857143
30
0
70
32
0
VERTEX
8
0
62
1
10
19.794866
20
84
30
0
70
32
0
SEQEND
8
0
0
POLYLINE
8
0
62
1
66
1
10
0
20
0
30
0
70
8
0
VERTEX
8
0
62
1
10
39.589733
20
107.22078
30
0
70
32
0
VERTEX
8
0
62
1
10
39.589733
20
86.857143
30
0
70
32
0
SEQEND
8
0
0
POLYLINE
8
0
62
1
66
1
10
0
20
0
30
0
70
8
0
VERTEX
8
0
62
1
10
39.589733
20
86.857143
30
0
70
32
0
VERTEX
8
0
62
1
10
59.384599
20
84
30
0
70
32
0
SEQEND
8
0
0
POLYLINE
8
0
62
1
66
1
10
0
20
0
30
0
70
8
0
VERTEX
8
0
62
1
10
79.179465
20
86.857143
30
0
70
32
0
VERTEX
8
0
62
1
10
59.384599
20
84
30
0
70
32
0
SEQEND
8
0
0
POLYLINE
8
0
62
1
66
1
10
0
20
0
30
0
70
8
0
VERTEX
8
0
62
1
10
79.179465
20
107.22078
30
0
70
32
0
VERTEX
8
0
62
1
10
79.179465
20
86.857143
30
0
70
32
0
SEQEND
8
0
0
POLYLINE
8
0
62
1
66
1
10
0
20
0
30
0
70
8
0
VERTEX
8
0
62
1
10
79.179465
20
86.857143
30
0
70
32
0
VERTEX
8
0
62
1
10
98.974332
20
84
30
0
70
32
0
SEQEND
8
0
0
POLYLINE
8
0
62
1
66
1
10
0
20
0
30
0
70
8
0
VERTEX
8
0
62
1
10
118.7692
20
86.857143
30
0
70
32
0
VERTEX
8
0
62
1
10
98.974332
20
84
30
0
70
32
0
SEQEND
8
0
0
POLYLINE
8
0
62
1
66
1
10
0
20
0
30
0
70
8
0
VERTEX
8
0
62
1
10
118.7692
20
107.22078
30
0
70
32
0
VERTEX
8
0
62
1
10
118.7692
20
86.857143
30
0
70
32
0
SEQEND
8
0
0
POLYLINE
8
0
62
1
66
1
10
0
20
0
30
0
70
8
0
VERTEX
8
0
62
1
10
118.7692
20
86.857143
30
0
70
32
0
VERTEX
8
0
62
1
10
138.56406
20
84
30
0
70
32
0
SEQEND
8
0
0
POLYLINE
8
0
62
1
66
1
10
0
20
0
30
0
70
8
0
VERTEX
8
0
62
1
10
158.35893
20
86.857143
30
0
70
32
0
VERTEX
8
0
62
1
10
138.56406
20
84
30
0
70
32
0
SEQEND
8
0
0
POLYLINE
8
0
62
1
66
1
10
0
20
0
30
0
70
8
0
VERTEX
8
0
62
1
10
158.35893
20
107.22078
30
0
70
32
0
VERTEX
8
0
62
1
10
158.35893
20
86.857143
30
0
70
32
0
SEQEND
8
0
0
POLYLINE
8
0
62
1
66
1
10
0
20
0
30
0
70
8
0
VERTEX
8
0
62
1
10
158.35893
20
86.857143
30
0
70
32
0
VERTEX
8
0
62
1
10
178.1538
20
84
30
0
70
32
0
SEQEND
8
0
0
POLYLINE
8
0
62
1
66
1
10
0
20
0
30
0
70
8
0
VERTEX
8
0
62
1
10
197.94866
20
86.857143
30
0
70
32
0
VERTEX
8
0
62
1
10
178.1538
20
84
30
0
70
32
0
SEQEND
8
0
0
POLYLINE
8
0
62
1
66
1
10
0
20
0
30
0
70
8
0
VERTEX
8
0
62
1
10
197.94866
20
107.22078
30
0
70
32
0
VERTEX
8
0
62
1
10
197.94866
20
86.857143
30
0
70
32
0
SEQEND
8
0
0
POLYLINE
8
0
62
1
66
1
10
0
20
0
30
0
70
8
0
VERTEX
8
0
62
1
10
0
20
135.22078
30
0
70
32
0
VERTEX
8
0
62
1
10
-3.5527137e-15
20
114.85714
30
0
70
32
0
SEQEND
8
0
0
POLYLINE
8
0
62
1
66
1
10
0
20
0
30
0
70
8
0
VERTEX
8
0
62
1
10
-3.5527137e-15
20
114.85714
30
0
70
32
0
VERTEX
8
0
62
1
10
19.794866
20
112
30
0
70
32
0
SEQEND
8
0
0
POLYLINE
8
0
62
1
66
1
10
0
20
0
30
0
70
8
0
VERTEX
8
0
62
1
10
39.589733
20
114.85714
30
0
70
32
0
VERTEX
8
0
62
1
10
19.794866
20
112
30
0
70
32
0
SEQEND
8
0
0
POLYLINE
8
0
62
1
66
1
10
0
20
0
30
0
70
8
0
VERTEX
8
0
62
1
10
39.589733
20
135.22078
30
0
70
32
0
VERTEX
8
0
62
1
10
39.589733
20
114.85714
30
0
70
32
0
SEQEND
8
0
0
POLYLINE
8
0
62
1
66
1
10
0
20
0
30
0
70
8
0
VERTEX
8
0
62
1
10
39.589733
20
114.85714
30
0
70
32
0
VERTEX
8
0
62
1
10
59.384599
20
112
30
0
70
32
0
SEQEND
8
0
0
POLYLINE
8
0
62
1
66
1
10
0
20
0
30
0
70
8
0
VERTEX
8
0
62
1
10
79.179465
20
114.85714
30
0
70
32
0
VERTEX
8
0
62
1
10
59.384599
20
112
30
0
70
32
0
SEQEND
8
0
0
POLYLINE
8
0
62
1
66
1
10
0
20
0
30
0
70
8
0
VERTEX
8
0
62
1
10
79.179465
20
135.22078
30
0
70
32
0
VERTEX
8
0
62
1
10
79.179465
20
114.85714
30
0
70
32
0
SEQEND
8
0
0
POLYLINE
8
0
62
1
66
1
10
0
20
0
30
0
70
8
0
VERTEX
8
0
62
1
10
79.179465
20
114.85714
30
0
70
32
0
VERTEX
8
0
62
1
10
98.974332
20
112
30
0
70
32
0
SEQEND
8
0
0
POLYLINE
8
0
62
1
66
1
10
0
20
0
30
0
70
8
0
VERTEX
8
0
62
1
10
118.7692
20
114.85714
30
0
70
32
0
VERTEX
8
0
62
1
10
98.974332
20
112
30
0
70
32
0
SEQEND
8
0
0
POLYLINE
8
0
62
1
66
1
10
0
20
0
30
0
70
8
0
VERTEX
8
0
62
1
10
118.7692
20
135.22078
30
0
70
32
0
VERTEX
8
0
62
1
10
118.7692
20
114.85714
30
0
70
32
0
SEQEND
8
0
0
POLYLINE
8
0
62
1
66
1
10
0
20
0
30
0
70
8
0
VERTEX
8
0
62
1
10
118.7692
20
114.85714
30
0
70
32
0
VERTEX
8
0
62
1
10
138.56406
20
112
30
0
70
32
0
SEQEND
8
0
0
POLYLINE
8
0
62
1
66
1
10
0
20
0
30
0
70
8
0
VERTEX
8
0
62
1
10
158.35893
20
114.85714
30
0
70
32
0
VERTEX
8
0
62
1
10
138.56406
20
112
30
0
70
32
0
SEQEND
8
0
0
POLYLINE
8
0
62
1
66
1
10
0
20
0
30
0
70
8
0
VERTEX
8
0
62
1
10
158.35893
20
135.22078
30
0
70
32
0
VERTEX
8
0
62
1
10
158.35893
20
114.85714
30
0
70
32
0
SEQEND
8
0
0
POLYLINE
8
0
62
1
66
1
10
0
20
0
30
0
70
8
0
VERTEX
8
0
62
1
10
158.35893
20
114.85714
30
0
70
32
0
VERTEX
8
0
62
1
10
178.1538
20
112
30
0
70
32
0
SEQEND
8
0
0
POLYLINE
8
0
62
1
66
1
10
0
20
0
30
0
70
8
0
VERTEX
8
0
62
1
10
197.94866
20
114.85714
30
0
70
32
0
VERTEX
8
0
62
1
10
178.1538
20
112
30
0
70
32
0
SEQEND
8
0
0
POLYLINE
8
0
62
1
66
1
10
0
20
0
30
0
70
8
0
VERTEX
8
0
62
1
10
197.94866
20
135.22078
30
0
70
32
0
VERTEX
8
0
62
1
10
197.94866
20
114.85714
30
0
70
32
0
SEQEND
8
0
0
POLYLINE
8
0
62
1
66
1
10
0
20
0
30
0
70
8
0
VERTEX
8
0
62
1
10
0
20
163.22078
30
0
70
32
0
VERTEX
8
0
62
1
10
-3.5527137e-15
20
142.85714
30
0
70
32
0
SEQEND
8
0
0
POLYLINE
8
0
62
1
66
1
10
0
20
0
30
0
70
8
0
VERTEX
8
0
62
1
10
-3.5527137e-15
20
142.85714
30
0
70
32
0
VERTEX
8
0
62
1
10
19.794866
20
140
30
0
70
32
0
SEQEND
8
0
0
POLYLINE
8
0
62
1
66
1
10
0
20
0
30
0
70
8
0
VERTEX
8
0
62
1
10
39.589733
20
142.85714
30
0
70
32
0
VERTEX
8
0
62
1
10
19.794866
20
140
30
0
70
32
0
SEQEND
8
0
0
POLYLINE
8
0
62
1
66
1
10
0
20
0
30
0
70
8
0
VERTEX
8
0
62
1
10
39.589733
20
163.22078
30
0
70
32
0
VERTEX
8
0
62
1
10
39.589733
20
142.85714
30
0
70
32
0
SEQEND
8
0
0
POLYLINE
8
0
62
1
66
1
10
0
20
0
30
0
70
8
0
VERTEX
8
0
62
1
10
39.589733
20
142.85714
30
0
70
32
0
VERTEX
8
0
62
1
10
59.384599
20
140
30
0
70
32
0
SEQEND
8
0
0
POLYLINE
8
0
62
1
66
1
10
0
20
0
30
0
70
8
0
VERTEX
8
0
62
1
10
79.179465
20
142.85714
30
0
70
32
0
VERTEX
8
0
62
1
10
59.384599
20
140
30
0
70
32
0
SEQEND
8
0
0
POLYLINE
8
0
62
1
66
1
10
0
20
0
30
0
70
8
0
VERTEX
8
0
62
1
10
79.179465
20
163.22078
30
0
70
32
0
VERTEX
8
0
62
1
10
79.179465
20
142.85714
30
0
70
32
0
SEQEND
8
0
0
POLYLINE
8
0
62
1
66
1
10
0
20
0
30
0
70
8
0
VERTEX
8
0
62
1
10
79.179465
20
142.85714
30
0
70
32
0
VERTEX
8
0
62
1
10
98.974332
20
140
30
0
70
32
0
SEQEND
8
0
0
POLYLINE
8
0
62
1
66
1
10
0
20
0
30
0
70
8
0
VERTEX
8
0
62
1
10
118.7692
20
142.85714
30
0
70
32
0
VERTEX
8
0
62
1
10
98.974332
20
140
30
0
70
32
0
SEQEND
8
0
0
POLYLINE
8
0
62
1
66
1
10
0
20
0
30
0
70
8
0
VERTEX
8
0
62
1
10
118.7692
20
163.22078
30
0
70
32
0
VERTEX
8
0
62
1
10
118.7692
20
142.85714
30
0
70
32
0
SEQEND
8
0
0
POLYLINE
8
0
62
1
66
1
10
0
20
0
30
0
70
8
0
VERTEX
8
0
62
1
10
118.7692
20
142.85714
30
0
70
32
0
VERTEX
8
0
62
1
10
138.56406
20
140
30
0
70
32
0
SEQEND
8
0
0
POLYLINE
8
0
62
1
66
1
10
0
20
0
30
0
70
8
0
VERTEX
8
0
62
1
10
158.35893
20
142.85714
30
0
70
32
0
VERTEX
8
0
62
1
10
138.56406
20
140
30
0
70
32
0
SEQEND
8
0
0
POLYLINE
8
0
62
1
66
1
10
0
20
0
30
0
70
8
0
VERTEX
8
0
62
1
10
158.35893
20
163.22078
30
0
70
32
0
VERTEX
8
0
62
1
10
158.35893
20
142.85714
30
0
70
32
0
SEQEND
8
0
0
POLYLINE
8
0
62
1
66
1
10
0
20
0
30
0
70
8
0
VERTEX
8
0
62
1
10
158.35893
20
142.85714
30
0
70
32
0
VERTEX
8
0
62
1
10
178.1538
20
140
30
0
70
32
0
SEQEND
8
0
0
POLYLINE
8
0
62
1
66
1
10
0
20
0
30
0
70
8
0
VERTEX
8
0
62
1
10
197.94866
20
142.85714
30
0
70
32
0
VERTEX
8
0
62
1
10
178.1538
20
140
30
0
70
32
0
SEQEND
8
0
0
POLYLINE
8
0
62
1
66
1
10
0
20
0
30
0
70
8
0
VERTEX
8
0
62
1
10
197.94866
20
163.22078
30
0
70
32
0
VERTEX
8
0
62
1
10
197.94866
20
142.85714
30
0
70
32
0
SEQEND
8
0
0
POLYLINE
8
0
62
1
66
1
10
0
20
0
30
0
70
8
0
VERTEX
8
0
62
1
10
19.794866
20
7.6363636
30
0
70
32
0
VERTEX
8
0
62
1
10
19.794866
20
28
30
0
70
32
0
SEQEND
8
0
0
POLYLINE
8
0
62
1
66
1
10
0
20
0
30
0
70
8
0
VERTEX
8
0
62
1
10
59.384599
20
7.6363636
30
0
70
32
0
VERTEX
8
0
62
1
10
59.384599
20
28
30
0
70
32
0
SEQEND
8
0
0
POLYLINE
8
0
62
1
66
1
10
0
20
0
30
0
70
8
0
VERTEX
8
0
62
1
10
98.974332
20
7.6363636
30
0
70
32
0
VERTEX
8
0
62
1
10
98.974332
20
28
30
0
70
32
0
SEQEND
8
0
0
POLYLINE
8
0
62
1
66
1
10
0
20
0
30
0
70
8
0
VERTEX
8
0
62
1
10
138.56406
20
7.6363636
30
0
70
32
0
VERTEX
8
0
62
1
10
138.56406
20
28
30
0
70
32
0
SEQEND
8
0
0
POLYLINE
8
0
62
1
66
1
10
0
20
0
30
0
70
8
0
VERTEX
8
0
62
1
10
178.1538
20
7.6363636
30
0
70
32
0
VERTEX
8
0
62
1
10
178.1538
20
28
30
0
70
32
0
SEQEND
8
0
0
POLYLINE
8
0
62
1
66
1
10
0
20
0
30
0
70
8
0
VERTEX
8
0
62
1
10
19.794866
20
35.636364
30
0
70
32
0
VERTEX
8
0
62
1
10
19.794866
20
56
30
0
70
32
0
SEQEND
8
0
0
POLYLINE
8
0
62
1
66
1
10
0
20
0
30
0
70
8
0
VERTEX
8
0
62
1
10
59.384599
20
35.636364
30
0
70
32
0
VERTEX
8
0
62
1
10
59.384599
20
56
30
0
70
32
0
SEQEND
8
0
0
POLYLINE
8
0
62
1
66
1
10
0
20
0
30
0
70
8
0
VERTEX
8
0
62
1
10
98.974332
20
35.636364
30
0
70
32
0
VERTEX
8
0
62
1
10
98.974332
20
56
30
0
70
32
0
SEQEND
8
0
0
POLYLINE
8
0
62
1
66
1
10
0
20
0
30
0
70
8
0
VERTEX
8
0
62
1
10
138.56406
20
35.636364
30
0
70
32
0
VERTEX
8
0
62
1
10
138.56406
20
56
30
0
70
32
0
SEQEND
8
0
0
POLYLINE
8
0
62
1
66
1
10
0
20
0
30
0
70
8
0
VERTEX
8
0
62
1
10
178.1538
20
35.636364
30
0
70
32
0
VERTEX
8
0
62
1
10
178.1538
20
56
30
0
70
32
0
SEQEND
8
0
0
POLYLINE
8
0
62
1
66
1
10
0
20
0
30
0
70
8
0
VERTEX
8
0
62
1
10
19.794866
20
63.636364
30
0
70
32
0
VERTEX
8
0
62
1
10
19.794866
20
84
30
0
70
32
0
SEQEND
8
0
0
POLYLINE
8
0
62
1
66
1
10
0
20
0
30
0
70
8
0
VERTEX
8
0
62
1
10
59.384599
20
63.636364
30
0
70
32
0
VERTEX
8
0
62
1
10
59.384599
20
84
30
0
70
32
0
SEQEND
8
0
0
POLYLINE
8
0
62
1
66
1
10
0
20
0
30
0
70
8
0
VERTEX
8
0
62
1
10
98.974332
20
63.636364
30
0
70
32
0
VERTEX
8
0
62
1
10
98.974332
20
84
30
0
70
32
0
SEQEND
8
0
0
POLYLINE
8
0
62
1
66
1
10
0
20
0
30
0
70
8
0
VERTEX
8
0
62
1
10
138.56406
20
63.636364
30
0
70
32
0
VERTEX
8
0
62
1
10
138.56406
20
84
30
0
70
32
0
SEQEND
8
0
0
POLYLINE
8
0
62
1
66
1
10
0
20
0
30
0
70
8
0
VERTEX
8
0
62
1
10
178.1538
20
63.636364
30
0
70
32
0
VERTEX
8
0
62
1
10
178.1538
20
84
30
0
70
32
0
SEQEND
8
0
0
POLYLINE
8
0
62
1
66
1
10
0
20
0
30
0
70
8
0
VERTEX
8
0
62
1
10
19.794866
20
91.636364
30
0
70
32
0
VERTEX
8
0
62
1
10
19.794866
20
112
30
0
70
32
0
SEQEND
8
0
0
POLYLINE
8
0
62
1
66
1
10
0
20
0
30
0
70
8
0
VERTEX
8
0
62
1
10
59.384599
20
91.636364
30
0
70
32
0
VERTEX
8
0
62
1
10
59.384599
20
112
30
0
70
32
0
SEQEND
8
0
0
POLYLINE
8
0
62
1
66
1
10
0
20
0
30
0
70
8
0
VERTEX
8
0
62
1
10
98.974332
20
91.636364
30
0
70
32
0
VERTEX
8
0
62
1
10
98.974332
20
112
30
0
70
32
0
SEQEND
8
0
0
POLYLINE
8
0
62
1
66
1
10
0
20
0
30
0
70
8
0
VERTEX
8
0
62
1
10
138.56406
20
91.636364
30
0
70
32
0
VERTEX
8
0
62
1
10
138.56406
20
112
30
0
70
32
0
SEQEND
8
0
0
POLYLINE
8
0
62
1
66
1
10
0
20
0
30
0
70
8
0
VERTEX
8
0
62
1
10
178.1538
20
91.636364
30
0
70
32
0
VERTEX
8
0
62
1
10
178.1538
20
112
30
0
70
32
0
SEQEND
8
0
0
POLYLINE
8
0
62
1
66
1
10
0
20
0
30
0
70
8
0
VERTEX
8
0
62
1
10
19.794866
20
119.63636
30
0
70
32
0
VERTEX
8
0
62
1
10
19.794866
20
140
30
0
70
32
0
SEQEND
8
0
0
POLYLINE
8
0
62
1
66
1
10
0
20
0
30
0
70
8
0
VERTEX
8
0
62
1
10
59.384599
20
119.63636
30
0
70
32
0
VERTEX
8
0
62
1
10
59.384599
20
140
30
0
70
32
0
SEQEND
8
0
0
POLYLINE
8
0
62
1
66
1
10
0
20
0
30
0
70
8
0
VERTEX
8
0
62
1
10
98.974332
20
119.63636
30
0
70
32
0
VERTEX
8
0
62
1
10
98.974332
20
140
30
0
70
32
0
SEQEND
8
0
0
POLYLINE
8
0
62
1
66
1
10
0
20
0
30
0
70
8
0
VERTEX
8
0
62
1
10
138.56406
20
119.63636
30
0
70
32
0
VERTEX
8
0
62
1
10
138.56406
20
140
30
0
70
32
0
SEQEND
8
0
0
POLYLINE
8
0
62
1
66
1
10
0
20
0
30
0
70
8
0
VERTEX
8
0
62
1
10
178.1538
20
119.63636
30
0
70
32
0
VERTEX
8
0
62
1
10
178.1538
20
140
30
0
70
32
0
SEQEND
8
0
0
POLYLINE
8
0
62
1
66
1
10
0
20
0
30
0
70
8
0
VERTEX
8
0
62
1
10
19.794866
20
147.63636
30
0
70
32
0
VERTEX
8
0
62
1
10
19.794866
20
168
30
0
70
32
0
SEQEND
8
0
0
POLYLINE
8
0
62
1
66
1
10
0
20
0
30
0
70
8
0
VERTEX
8
0
62
1
10
59.384599
20
147.63636
30
0
70
32
0
VERTEX
8
0
62
1
10
59.384599
20
168
30
0
70
32
0
SEQEND
8
0
0
POLYLINE
8
0
62
1
66
1
10
0
20
0
30
0
70
8
0
VERTEX
8
0
62
1
10
98.974332
20
147.63636
30
0
70
32
0
VERTEX
8
0
62
1
10
98.974332
20
168
30
0
70
32
0
SEQEND
8
0
0
POLYLINE
8
0
62
1
66
1
10
0
20
0
30
0
70
8
0
VERTEX
8
0
62
1
10
138.56406
20
147.63636
30
0
70
32
0
VERTEX
8
0
62
1
10
138.56406
20
168
30
0
70
32
0
SEQEND
8
0
0
POLYLINE
8
0
62
1
66
1
10
0
20
0
30
0
70
8
0
VERTEX
8
0
62
1
10
178.1538
20
147.63636
30
0
70
32
0
VERTEX
8
0
62
1
10
178.1538
20
168
30
0
70
32
0
SEQEND
8
0
0
POLYLINE
8
0
62
1
66
1
10
0
20
0
30
0
70
8
0
VERTEX
8
0
62
1
10
19.794866
20
168
30
0
70
32
0
VERTEX
8
0
62
1
10
3.5527137e-15
20
170.85714
30
0
70
32
0
SEQEND
8
0
0
POLYLINE
8
0
62
1
66
1
10
0
20
0
30
0
70
8
0
VERTEX
8
0
62
1
10
19.794866
20
168
30
0
70
32
0
VERTEX
8
0
62
1
10
39.589733
20
170.85714
30
0
70
32
0
SEQEND
8
0
0
POLYLINE
8
0
62
1
66
1
10
0
20
0
30
0
70
8
0
VERTEX
8
0
62
1
10
59.384599
20
168
30
0
70
32
0
VERTEX
8
0
62
1
10
39.589733
20
170.85714
30
0
70
32
0
SEQEND
8
0
0
POLYLINE
8
0
62
1
66
1
10
0
20
0
30
0
70
8
0
VERTEX
8
0
62
1
10
59.384599
20
168
30
0
70
32
0
VERTEX
8
0
62
1
10
79.179465
20
170.85714
30
0
70
32
0
SEQEND
8
0
0
POLYLINE
8
0
62
1
66
1
10
0
20
0
30
0
70
8
0
VERTEX
8
0
62
1
10
98.974332
20
168
30
0
70
32
0
VERTEX
8
0
62
1
10
79.179465
20
170.85714
30
0
70
32
0
SEQEND
8
0
0
POLYLINE
8
0
62
1
66
1
10
0
20
0
30
0
70
8
0
VERTEX
8
0
62
1
10
98.974332
20
168
30
0
70
32
0
VERTEX
8
0
62
1
10
118.7692
20
170.85714
30
0
70
32
0
SEQEND
8
0
0
POLYLINE
8
0
62
1
66
1
10
0
20
0
30
0
70
8
0
VERTEX
8
0
62
1
10
138.56406
20
168
30
0
70
32
0
VERTEX
8
0
62
1
10
118.7692
20
170.85714
30
0
70
32
0
SEQEND
8
0
0
POLYLINE
8
0
62
1
66
1
10
0
20
0
30
0
70
8
0
VERTEX
8
0
62
1
10
138.56406
20
168
30
0
70
32
0
VERTEX
8
0
62
1
10
158.35893
20
170.85714
30
0
70
32
0
SEQEND
8
0
0
POLYLINE
8
0
62
1
66
1
10
0
20
0
30
0
70
8
0
VERTEX
8
0
62
1
10
178.1538
20
168
30
0
70
32
0
VERTEX
8
0
62
1
10
158.35893
20
170.85714
30
0
70
32
0
SEQEND
8
0
0
POLYLINE
8
0
62
1
66
1
10
0
20
0
30
0
70
8
0
VERTEX
8
0
62
1
10
178.1538
20
168
30
0
70
32
0
VERTEX
8
0
62
1
10
197.94866
20
170.85714
30
0
70
32
0
SEQEND
8
0
0
POLYLINE
8
0
62
1
66
1
10
0
20
0
30
0
70
8
0
VERTEX
8
0
62
1
10
3.5527137e-15
20
170.85714
30
0
70
32
0
VERTEX
8
0
62
1
10
3.5527137e-15
20
175.94805
30
0
70
32
0
SEQEND
8
0
0
POLYLINE
8
0
62
1
66
1
10
0
20
0
30
0
70
8
0
VERTEX
8
0
62
1
10
39.589733
20
170.85714
30
0
70
32
0
VERTEX
8
0
62
1
10
39.589733
20
175.94805
30
0
70
32
0
SEQEND
8
0
0
POLYLINE
8
0
62
1
66
1
10
0
20
0
30
0
70
8
0
VERTEX
8
0
62
1
10
79.179465
20
170.85714
30
0
70
32
0
VERTEX
8
0
62
1
10
79.179465
20
175.94805
30
0
70
32
0
SEQEND
8
0
0
POLYLINE
8
0
62
1
66
1
10
0
20
0
30
0
70
8
0
VERTEX
8
0
62
1
10
118.7692
20
170.85714
30
0
70
32
0
VERTEX
8
0
62
1
10
118.7692
20
175.94805
30
0
70
32
0
SEQEND
8
0
0
POLYLINE
8
0
62
1
66
1
10
0
20
0
30
0
70
8
0
VERTEX
8
0
62
1
10
158.35893
20
170.85714
30
0
70
32
0
VERTEX
8
0
62
1
10
158.35893
20
175.94805
30
0
70
32
0
SEQEND
8
0
0
POLYLINE
8
0
62
1
66
1
10
0
20
0
30
0
70
8
0
VERTEX
8
0
62
1
10
197.94866
20
170.85714
30
0
70
32
0
VERTEX
8
0
62
1
10
197.94866
20
175.94805
30
0
70
32
0
SEQEND
8
0
0
POLYLINE
8
0
62
1
66
1
10
0
20
0
30
0
70
8
0
VERTEX
8
0
62
1
10
-10
20
-10
30
0
70
32
0
VERTEX
8
0
62
1
10
207.94866
20
-10
30
0
70
32
0
VERTEX
8
0
62
1
10
207.94866
20
190.65867
30
0
70
32
0
VERTEX
8
0
62
1
10
-10
20
190.65867
30
0
70
32
0
VERTEX
8
0
62
1
10
-10
20
-10
30
0
70
32
0
SEQEND
8
0
0
ENDSEC
0
EOF
