0
SECTION
2
HEADER
9
$ACADVER
1
AC1006
9
$INSUNITS
70
6
0
ENDSEC
0
SECTION
2
ENTITIES
0
POLYLINE
8
0
62
3
66
1
10
0
20
0
30
0
70
8
0
VERTEX
8
0
62
3
10
4.9487166
20
7.2337662
30
0
70
32
0
VERTEX
8
0
62
3
10
5.4249071
20
10.532911
30
0
70
32
0
VERTEX
8
0
62
3
10
10.373624
20
9.8186249
30
0
70
32
0
VERTEX
8
0
62
3
10
9.8974332
20
6.5194805
30
0
70
32
0
VERTEX
8
0
62
3
10
4.9487166
20
7.2337662
30
0
70
32
0
SEQEND
8
0
0
POLYLINE
8
0
62
3
66
1
10
0
20
0
30
0
70
8
0
VERTEX
8
0
62
3
10
34.641016
20
7.2337662
30
0
70
32
0
VERTEX
8
0
62
3
10
34.164826
20
10.532911
30
0
70
32
0
VERTEX
8
0
62
3
10
29.216109
20
9.8186249
30
0
70
32
0
VERTEX
8
0
62
3
10
29.6923
20
6.5194805
30
0
70
32
0
VERTEX
8
0
62
3
10
34.641016
20
7.2337662
30
0
70
32
0
SEQEND
8
0
0
POLYLINE
8
0
62
3
66
1
10
0
20
0
30
0
70
8
0
VERTEX
8
0
62
3
10
44.538449
20
7.2337662
30
0
70
32
0
VERTEX
8
0
62
3
10
45.01464
20
10.532911
30
0
70
32
0
VERTEX
8
0
62
3
10
49.963356
20
9.8186249
30
0
70
32
0
VERTEX
8
0
62
3
10
49.487166
20
6.5194805
30
0
70
32
0
VERTEX
8
0
62
3
10
44.538449
20
7.2337662
30
0
70
32
0
SEQEND
8
0
0
POLYLINE
8
0
62
3
66
1
10
0
20
0
30
0
70
8
0
VERTEX
8
0
62
3
10
74.230749
20
7.2337662
30
0
70
32
0
VERTEX
8
0
62
3
10
73.754558
20
10.532911
30
0
70
32
0
VERTEX
8
0
62
3
10
68.805842
20
9.8186249
30
0
70
32
0
VERTEX
8
0
62
3
10
69.282032
20
6.5194805
30
0
70
32
0
VERTEX
8
0
62
3
10
74.230749
20
7.2337662
30
0
70
32
0
SEQEND
8
0
0
POLYLINE
8
0
62
3
66
1
10
0
20
0
30
0
70
8
0
VERTEX
8
0
62
3
10
84.128182
20
7.2337662
30
0
70
32
0
VERTEX
8
0
62
3
10
84.604373
20
10.532911
30
0
70
32
0
VERTEX
8
0
62
3
10
89.553089
20
9.8186249
30
0
70
32
0
VERTEX
8
0
62
3
10
89.076899
20
6.5194805
30
0
70
32
0
VERTEX
8
0
62
3
10
84.128182
20
7.2337662
30
0
70
32
0
SEQEND
8
0
0
POLYLINE
8
0
62
3
66
1
10
0
20
0
30
0
70
8
0
VERTEX
8
0
62
3
10
113.82048
20
7.2337662
30
0
70
32
0
VERTEX
8
0
62
3
10
113.34429
20
10.532911
30
0
70
32
0
VERTEX
8
0
62
3
10
108.39557
20
9.8186249
30
0
70
32
0
VERTEX
8
0
62
3
10
108.87177
20
6.5194805
30
0
70
32
0
VERTEX
8
0
62
3
10
113.82048
20
7.2337662
30
0
70
32
0
SEQEND
8
0
0
POLYLINE
8
0
62
3
66
1
10
0
20
0
30
0
70
8
0
VERTEX
8
0
62
3
10
123.71791
20
7.2337662
30
0
70
32
0
VERTEX
8
0
62
3
10
124.19411
20
10.532911
30
0
70
32
0
VERTEX
8
0
62
3
10
129.14282
20
9.8186249
30
0
70
32
0
VERTEX
8
0
62
3
10
128.66663
20
6.5194805
30
0
70
32
0
VERTEX
8
0
62
3
10
123.71791
20
7.2337662
30
0
70
32
0
SEQEND
8
0
0
POLYLINE
8
0
62
3
66
1
10
0
20
0
30
0
70
8
0
VERTEX
8
0
62
3
10
153.41021
20
7.2337662
30
0
70
32
0
VERTEX
8
0
62
3
10
152.93402
20
10.532911
30
0
70
32
0
VERTEX
8
0
62
3
10
147.98531
20
9.8186249
30
0
70
32
0
VERTEX
8
0
62
3
10
148.4615
20
6.5194805
30
0
70
32
0
VERTEX
8
0
62
3
10
153.41021
20
7.2337662
30
0
70
32
0
SEQEND
8
0
0
POLYLINE
8
0
62
3
66
1
10
0
20
0
30
0
70
8
0
VERTEX
8
0
62
3
10
163.30765
20
7.2337662
30
0
70
32
0
VERTEX
8
0
62
3
10
163.78384
20
10.532911
30
0
70
32
0
VERTEX
8
0
62
3
10
168.73255
20
9.8186249
30
0
70
32
0
VERTEX
8
0
62
3
10
168.25636
20
6.5194805
30
0
70
32
0
VERTEX
8
0
62
3
10
163.30765
20
7.2337662
30
0
70
32
0
SEQEND
8
0
0
POLYLINE
8
0
62
3
66
1
10
0
20
0
30
0
70
8
0
VERTEX
8
0
62
3
10
192.99995
20
7.2337662
30
0
70
32
0
VERTEX
8
0
62
3
10
192.52376
20
10.532911
30
0
70
32
0
VERTEX
8
0
62
3
10
187.57504
20
9.8186249
30
0
70
32
0
VERTEX
8
0
62
3
10
188.05123
20
6.5194805
30
0
70
32
0
VERTEX
8
0
62
3
10
192.99995
20
7.2337662
30
0
70
32
0
SEQEND
8
0
0
POLYLINE
8
0
62
3
66
1
10
0
20
0
30
0
70
8
0
VERTEX
8
0
62
3
10
0
20
2.8571429
30
0
70
32
0
VERTEX
8
0
62
3
10
19.794866
20
0
30
0
70
32
0
VERTEX
8
0
62
3
10
39.589733
20
2.8571429
30
0
70
32
0
VERTEX
8
0
62
3
10
59.384599
20
0
30
0
70
32
0
VERTEX
8
0
62
3
10
79.179465
20
2.8571429
30
0
70
32
0
VERTEX
8
0
62
3
10
98.974332
20
0
30
0
70
32
0
VERTEX
8
0
62
3
10
118.7692
20
2.8571429
30
0
70
32
0
VERTEX
8
0
62
3
10
138.56406
20
0
30
0
70
32
0
VERTEX
8
0
62
3
10
158.35893
20
2.8571429
30
0
70
32
0
VERTEX
8
0
62
3
10
178.1538
20
0
30
0
70
32
0
VERTEX
8
0
62
3
10
197.94866
20
2.8571429
30
0
70
32
0
VERTEX
8
0
62
3
10
197.94866
20
175.94805
30
0
70
32
0
VERTEX
8
0
62
3
10
192.99995
20
175.23377
30
0
70
32
0
VERTEX
8
0
62
3
10
192.76185
20
176.88334
30
0
70
32
0
VERTEX
8
0
62
3
10
196.061
20
177.35953
30
0
70
32
0
VERTEX
8
0
62
3
10
195.58481
20
180.65867
30
0
70
32
0
VERTEX
8
0
62
3
10
184.0378
20
178.99201
30
0
70
32
0
VERTEX
8
0
62
3
10
184.51399
20
175.69286
30
0
70
32
0
VERTEX
8
0
62
3
10
187.81314
20
176.16905
30
0
70
32
0
VERTEX
8
0
62
3
10
188.05123
20
174.51948
30
0
70
32
0
VERTEX
8
0
62
3
10
178.1538
20
173.09091
30
0
70
32
0
VERTEX
8
0
62
3
10
168.25636
20
174.51948
30
0
70
32
0
VERTEX
8
0
62
3
10
168.49446
20
176.16905
30
0
70
32
0
VERTEX
8
0
62
3
10
171.7936
20
175.69286
30
0
70
32
0
VERTEX
8
0
62
3
10
172.26979
20
178.99201
30
0
70
32
0
VERTEX
8
0
62
3
10
160.72279
20
180.65867
30
0
70
32
0
VERTEX
8
0
62
3
10
160.2466
20
177.35953
30
0
70
32
0
VERTEX
8
0
62
3
10
163.54574
20
176.88334
30
0
70
32
0
VERTEX
8
0
62
3
10
163.30765
20
175.23377
30
0
70
32
0
VERTEX
8
0
62
3
10
158.35893
20
175.94805
30
0
70
32
0
VERTEX
8
0
62
3
10
158.35893
20
175.94805
30
0
70
32
0
VERTEX
8
0
62
3
10
153.41021
20
175.23377
30
0
70
32
0
VERTEX
8
0
62
3
10
153.17212
20
176.88334
30
0
70
32
0
VERTEX
8
0
62
3
10
156.47126
20
177.35953
30
0
70
32
0
VERTEX
8
0
62
3
10
155.99507
20
180.65867
30
0
70
32
0
VERTEX
8
0
62
3
10
144.44807
20
178.99201
30
0
70
32
0
VERTEX
8
0
62
3
10
144.92426
20
175.69286
30
0
70
32
0
VERTEX
8
0
62
3
10
148.2234
20
176.16905
30
0
70
32
0
VERTEX
8
0
62
3
10
148.4615
20
174.51948
30
0
70
32
0
VERTEX
8
0
62
3
10
138.56406
20
173.09091
30
0
70
32
0
VERTEX
8
0
62
3
10
128.66663
20
174.51948
30
0
70
32
0
VERTEX
8
0
62
3
10
128.90473
20
176.16905
30
0
70
32
0
VERTEX
8
0
62
3
10
132.20387
20
175.69286
30
0
70
32
0
VERTEX
8
0
62
3
10
132.68006
20
178.99201
30
0
70
32
0
VERTEX
8
0
62
3
10
121.13306
20
180.65867
30
0
70
32
0
VERTEX
8
0
62
3
10
120.65687
20
177.35953
30
0
70
32
0
VERTEX
8
0
62
3
10
123.95601
20
176.88334
30
0
70
32
0
VERTEX
8
0
62
3
10
123.71791
20
175.23377
30
0
70
32
0
VERTEX
8
0
62
3
10
118.7692
20
175.94805
30
0
70
32
0
VERTEX
8
0
62
3
10
118.7692
20
175.94805
30
0
70
32
0
VERTEX
8
0
62
3
10
113.82048
20
175.23377
30
0
70
32
0
VERTEX
8
0
62
3
10
113.58239
20
176.88334
30
0
70
32
0
VERTEX
8
0
62
3
10
116.88153
20
177.35953
30
0
70
32
0
VERTEX
8
0
62
3
10
116.40534
20
180.65867
30
0
70
32
0
VERTEX
8
0
62
3
10
104.85833
20
178.99201
30
0
70
32
0
VERTEX
8
0
62
3
10
105.33453
20
175.69286
30
0
70
32
0
VERTEX
8
0
62
3
10
108.63367
20
176.16905
30
0
70
32
0
VERTEX
8
0
62
3
10
108.87177
20
174.51948
30
0
70
32
0
VERTEX
8
0
62
3
10
98.974332
20
173.09091
30
0
70
32
0
VERTEX
8
0
62
3
10
89.076899
20
174.51948
30
0
70
32
0
VERTEX
8
0
62
3
10
89.314994
20
176.16905
30
0
70
32
0
VERTEX
8
0
62
3
10
92.614138
20
175.69286
30
0
70
32
0
VERTEX
8
0
62
3
10
93.090329
20
178.99201
30
0
70
32
0
VERTEX
8
0
62
3
10
81.543323
20
180.65867
30
0
70
32
0
VERTEX
8
0
62
3
10
81.067133
20
177.35953
30
0
70
32
0
VERTEX
8
0
62
3
10
84.366277
20
176.88334
30
0
70
32
0
VERTEX
8
0
62
3
10
84.128182
20
175.23377
30
0
70
32
0
VERTEX
8
0
62
3
10
79.179465
20
175.94805
30
0
70
32
0
VERTEX
8
0
62
3
10
79.179465
20
175.94805
30
0
70
32
0
VERTEX
8
0
62
3
10
74.230749
20
175.23377
30
0
70
32
0
VERTEX
8
0
62
3
10
73.992654
20
176.88334
30
0
70
32
0
VERTEX
8
0
62
3
10
77.291798
20
177.35953
30
0
70
32
0
VERTEX
8
0
62
3
10
76.815608
20
180.65867
30
0
70
32
0
VERTEX
8
0
62
3
10
65.268602
20
178.99201
30
0
70
32
0
VERTEX
8
0
62
3
10
65.744793
20
175.69286
30
0
70
32
0
VERTEX
8
0
62
3
10
69.043937
20
176.16905
30
0
70
32
0
VERTEX
8
0
62
3
10
69.282032
20
174.51948
30
0
70
32
0
VERTEX
8
0
62
3
10
59.384599
20
173.09091
30
0
70
32
0
VERTEX
8
0
62
3
10
49.487166
20
174.51948
30
0
70
32
0
VERTEX
8
0
62
3
10
49.725261
20
176.16905
30
0
70
32
0
VERTEX
8
0
62
3
10
53.024406
20
175.69286
30
0
70
32
0
VERTEX
8
0
62
3
10
53.500596
20
178.99201
30
0
70
32
0
VERTEX
8
0
62
3
10
41.953591
20
180.65867
30
0
70
32
0
VERTEX
8
0
62
3
10
41.4774
20
177.35953
30
0
70
32
0
VERTEX
8
0
62
3
10
44.776545
20
176.88334
30
0
70
32
0
VERTEX
8
0
62
3
10
44.538449
20
175.23377
30
0
70
32
0
VERTEX
8
0
62
3
10
39.589733
20
175.94805
30
0
70
32
0
VERTEX
8
0
62
3
10
39.589733
20
175.94805
30
0
70
32
0
VERTEX
8
0
62
3
10
34.641016
20
175.23377
30
0
70
32
0
VERTEX
8
0
62
3
10
34.402921
20
176.88334
30
0
70
32
0
VERTEX
8
0
62
3
10
37.702065
20
177.35953
30
0
70
32
0
VERTEX
8
0
62
3
10
37.225875
20
180.65867
30
0
70
32
0
VERTEX
8
0
62
3
10
25.678869
20
178.99201
30
0
70
32
0
VERTEX
8
0
62
3
10
26.15506
20
175.69286
30
0
70
32
0
VERTEX
8
0
62
3
10
29.454204
20
176.16905
30
0
70
32
0
VERTEX
8
0
62
3
10
29.6923
20
174.51948
30
0
70
32
0
VERTEX
8
0
62
3
10
19.794866
20
173.09091
30
0
70
32
0
VERTEX
8
0
62
3
10
9.8974332
20
174.51948
30
0
70
32
0
VERTEX
8
0
62
3
10
10.135528
20
176.16905
30
0
70
32
0
VERTEX
8
0
62
3
10
13.434673
20
175.69286
30
0
70
32
0
VERTEX
8
0
62
3
10
13.910863
20
178.99201
30
0
70
32
0
VERTEX
8
0
62
3
10
2.3638579
20
180.65867
30
0
70
32
0
VERTEX
8
0
62
3
10
1.8876674
20
177.35953
30
0
70
32
0
VERTEX
8
0
62
3
10
5.1868118
20
176.88334
30
0
70
32
0
VERTEX
8
0
62
3
10
4.9487166
20
175.23377
30
0
70
32
0
VERTEX
8
0
62
3
10
3.5527137e-15
20
175.94805
30
0
70
32
0
VERTEX
8
0
62
3
10
0
20
2.8571429
30
0
70
32
0
SEQEND
8
0
0
CIRCLE
8
0
62
3
66
1
10
19.7949
20
7.6364
30
0
40
0.5
0
CIRCLE
8
0
62
3
66
1
10
39.5897
20
23.2208
30
0
40
0.5
0
CIRCLE
8
0
62
3
66
1
10
59.3846
20
7.6364
30
0
40
0.5
0
CIRCLE
8
0
62
3
66
1
10
79.1795
20
23.2208
30
0
40
0.5
0
CIRCLE
8
0
62
3
66
1
10
98.9743
20
7.6364
30
0
40
0.5
0
CIRCLE
8
0
62
3
66
1
10
118.7692
20
23.2208
30
0
40
0.5
0
CIRCLE
8
0
62
3
66
1
10
138.5641
20
7.6364
30
0
40
0.5
0
CIRCLE
8
0
62
3
66
1
10
158.3589
20
23.2208
30
0
40
0.5
0
CIRCLE
8
0
62
3
66
1
10
178.1538
20
7.6364
30
0
40
0.5
0
CIRCLE
8
0
62
3
66
1
10
19.7949
20
28
30
0
40
0.5
0
CIRCLE
8
0
62
3
66
1
10
39.5897
20
30.8571
30
0
40
0.5
0
CIRCLE
8
0
62
3
66
1
10
59.3846
20
28
30
0
40
0.5
0
CIRCLE
8
0
62
3
66
1
10
79.1795
20
30.8571
30
0
40
0.5
0
CIRCLE
8
0
62
3
66
1
10
98.9743
20
28
30
0
40
0.5
0
CIRCLE
8
0
62
3
66
1
10
118.7692
20
30.8571
30
0
40
0.5
0
CIRCLE
8
0
62
3
66
1
10
138.5641
20
28
30
0
40
0.5
0
CIRCLE
8
0
62
3
66
1
10
158.3589
20
30.8571
30
0
40
0.5
0
CIRCLE
8
0
62
3
66
1
10
178.1538
20
28
30
0
40
0.5
0
CIRCLE
8
0
62
3
66
1
10
19.7949
20
35.6364
30
0
40
0.5
0
CIRCLE
8
0
62
3
66
1
10
39.5897
20
51.2208
30
0
40
0.5
0
CIRCLE
8
0
62
3
66
1
10
59.3846
20
35.6364
30
0
40
0.5
0
CIRCLE
8
0
62
3
66
1
10
79.1795
20
51.2208
30
0
40
0.5
0
CIRCLE
8
0
62
3
66
1
10
98.9743
20
35.6364
30
0
40
0.5
0
CIRCLE
8
0
62
3
66
1
10
118.7692
20
51.2208
30
0
40
0.5
0
CIRCLE
8
0
62
3
66
1
10
138.5641
20
35.6364
30
0
40
0.5
0
CIRCLE
8
0
62
3
66
1
10
158.3589
20
51.2208
30
0
40
0.5
0
CIRCLE
8
0
62
3
66
1
10
178.1538
20
35.6364
30
0
40
0.5
0
CIRCLE
8
0
62
3
66
1
10
19.7949
20
56
30
0
40
0.5
0
CIRCLE
8
0
62
3
66
1
10
39.5897
20
58.8571
30
0
40
0.5
0
CIRCLE
8
0
62
3
66
1
10
59.3846
20
56
30
0
40
0.5
0
CIRCLE
8
0
62
3
66
1
10
79.1795
20
58.8571
30
0
40
0.5
0
CIRCLE
8
0
62
3
66
1
10
98.9743
20
56
30
0
40
0.5
0
CIRCLE
8
0
62
3
66
1
10
118.7692
20
58.8571
30
0
40
0.5
0
CIRCLE
8
0
62
3
66
1
10
138.5641
20
56
30
0
40
0.5
0
CIRCLE
8
0
62
3
66
1
10
158.3589
20
58.8571
30
0
40
0.5
0
CIRCLE
8
0
62
3
66
1
10
178.1538
20
56
30
0
40
0.5
0
CIRCLE
8
0
62
3
66
1
10
19.7949
20
63.6364
30
0
40
0.5
0
CIRCLE
8
0
62
3
66
1
10
39.5897
20
79.2208
30
0
40
0.5
0
CIRCLE
8
0
62
3
66
1
10
59.3846
20
63.6364
30
0
40
0.5
0
CIRCLE
8
0
62
3
66
1
10
79.1795
20
79.2208
30
0
40
0.5
0
CIRCLE
8
0
62
3
66
1
10
98.9743
20
63.6364
30
0
40
0.5
0
CIRCLE
8
0
62
3
66
1
10
118.7692
20
79.2208
30
0
40
0.5
0
CIRCLE
8
0
62
3
66
1
10
138.5641
20
63.6364
30
0
40
0.5
0
CIRCLE
8
0
62
3
66
1
10
158.3589
20
79.2208
30
0
40
0.5
0
CIRCLE
8
0
62
3
66
1
10
178.1538
20
63.6364
30
0
40
0.5
0
CIRCLE
8
0
62
3
66
1
10
19.7949
20
84
30
0
40
0.5
0
CIRCLE
8
0
62
3
66
1
10
39.5897
20
86.8571
30
0
40
0.5
0
CIRCLE
8
0
62
3
66
1
10
59.3846
20
84
30
0
40
0.5
0
CIRCLE
8
0
62
3
66
1
10
79.1795
20
86.8571
30
0
40
0.5
0
CIRCLE
8
0
62
3
66
1
10
98.9743
20
84
30
0
40
0.5
0
CIRCLE
8
0
62
3
66
1
10
118.7692
20
86.8571
30
0
40
0.5
0
CIRCLE
8
0
62
3
66
1
10
138.5641
20
84
30
0
40
0.5
0
CIRCLE
8
0
62
3
66
1
10
158.3589
20
86.8571
30
0
40
0.5
0
CIRCLE
8
0
62
3
66
1
10
178.1538
20
84
30
0
40
0.5
0
CIRCLE
8
0
62
3
66
1
10
19.7949
20
91.6364
30
0
40
0.5
0
CIRCLE
8
0
62
3
66
1
10
39.5897
20
107.2208
30
0
40
0.5
0
CIRCLE
8
0
62
3
66
1
10
59.3846
20
91.6364
30
0
40
0.5
0
CIRCLE
8
0
62
3
66
1
10
79.1795
20
107.2208
30
0
40
0.5
0
CIRCLE
8
0
62
3
66
1
10
98.9743
20
91.6364
30
0
40
0.5
0
CIRCLE
8
0
62
3
66
1
10
118.7692
20
107.2208
30
0
40
0.5
0
CIRCLE
8
0
62
3
66
1
10
138.5641
20
91.6364
30
0
40
0.5
0
CIRCLE
8
0
62
3
66
1
10
158.3589
20
107.2208
30
0
40
0.5
0
CIRCLE
8
0
62
3
66
1
10
178.1538
20
91.6364
30
0
40
0.5
0
CIRCLE
8
0
62
3
66
1
10
19.7949
20
112
30
0
40
0.5
0
CIRCLE
8
0
62
3
66
1
10
39.5897
20
114.8571
30
0
40
0.5
0
CIRCLE
8
0
62
3
66
1
10
59.3846
20
112
30
0
40
0.5
0
CIRCLE
8
0
62
3
66
1
10
79.1795
20
114.8571
30
0
40
0.5
0
CIRCLE
8
0
62
3
66
1
10
98.9743
20
112
30
0
40
0.5
0
CIRCLE
8
0
62
3
66
1
10
118.7692
20
114.8571
30
0
40
0.5
0
CIRCLE
8
0
62
3
66
1
10
138.5641
20
112
30
0
40
0.5
0
CIRCLE
8
0
62
3
66
1
10
158.3589
20
114.8571
30
0
40
0.5
0
CIRCLE
8
0
62
3
66
1
10
178.1538
20
112
30
0
40
0.5
0
CIRCLE
8
0
62
3
66
1
10
19.7949
20
119.6364
30
0
40
0.5
0
CIRCLE
8
0
62
3
66
1
10
39.5897
20
135.2208
30
0
40
0.5
0
CIRCLE
8
0
62
3
66
1
10
59.3846
20
119.6364
30
0
40
0.5
0
CIRCLE
8
0
62
3
66
1
10
79.1795
20
135.2208
30
0
40
0.5
0
CIRCLE
8
0
62
3
66
1
10
98.9743
20
119.6364
30
0
40
0.5
0
CIRCLE
8
0
62
3
66
1
10
118.7692
20
135.2208
30
0
40
0.5
0
CIRCLE
8
0
62
3
66
1
10
138.5641
20
119.6364
30
0
40
0.5
0
CIRCLE
8
0
62
3
66
1
10
158.3589
20
135.2208
30
0
40
0.5
0
CIRCLE
8
0
62
3
66
1
10
178.1538
20
119.6364
30
0
40
0.5
0
CIRCLE
8
0
62
3
66
1
10
19.7949
20
140
30
0
40
0.5
0
CIRCLE
8
0
62
3
66
1
10
39.5897
20
142.8571
30
0
40
0.5
0
CIRCLE
8
0
62
3
66
1
10
59.3846
20
140
30
0
40
0.5
0
CIRCLE
8
0
62
3
66
1
10
79.1795
20
142.8571
30
0
40
0.5
0
CIRCLE
8
0
62
3
66
1
10
98.9743
20
140
30
0
40
0.5
0
CIRCLE
8
0
62
3
66
1
10
118.7692
20
142.8571
30
0
40
0.5
0
CIRCLE
8
0
62
3
66
1
10
138.5641
20
140
30
0
40
0.5
0
CIRCLE
8
0
62
3
66
1
10
158.3589
20
142.8571
30
0
40
0.5
0
CIRCLE
8
0
62
3
66
1
10
178.1538
20
140
30
0
40
0.5
0
CIRCLE
8
0
62
3
66
1
10
19.7949
20
147.6364
30
0
40
0.5
0
CIRCLE
8
0
62
3
66
1
10
39.5897
20
163.2208
30
0
40
0.5
0
CIRCLE
8
0
62
3
66
1
10
59.3846
20
147.6364
30
0
40
0.5
0
CIRCLE
8
0
62
3
66
1
10
79.1795
20
163.2208
30
0
40
0.5
0
CIRCLE
8
0
62
3
66
1
10
98.9743
20
147.6364
30
0
40
0.5
0
CIRCLE
8
0
62
3
66
1
10
118.7692
20
163.2208
30
0
40
0.5
0
CIRCLE
8
0
62
3
66
1
10
138.5641
20
147.6364
30
0
40
0.5
0
CIRCLE
8
0
62
3
66
1
10
158.3589
20
163.2208
30
0
40
0.5
0
CIRCLE
8
0
62
3
66
1
10
178.1538
20
147.6364
30
0
40
0.5
0
CIRCLE
8
0
62
3
66
1
10
19.7949
20
168
30
0
40
0.5
0
CIRCLE
8
0
62
3
66
1
10
39.5897
20
170.8571
30
0
40
0.5
0
CIRCLE
8
0
62
3
66
1
10
59.3846
20
168
30
0
40
0.5
0
CIRCLE
8
0
62
3
66
1
10
79.1795
20
170.8571
30
0
40
0.5
0
CIRCLE
8
0
62
3
66
1
10
98.9743
20
168
30
0
40
0.5
0
CIRCLE
8
0
62
3
66
1
10
118.7692
20
170.8571
30
0
40
0.5
0
CIRCLE
8
0
62
3
66
1
10
138.5641
20
168
30
0
40
0.5
0
CIRCLE
8
0
62
3
66
1
10
158.3589
20
170.8571
30
0
40
0.5
0
CIRCLE
8
0
62
3
66
1
10
178.1538
20
168
30
0
40
0.5
0
POLYLINE
8
0
62
3
66
1
10
0
20
0
30
0
70
8
0
VERTEX
8
0
62
3
10
-10
20
-10
30
0
70
32
0
VERTEX
8
0
62
3
10
207.94866
20
-10
30
0
70
32
0
VERTEX
8
0
62
3
10
207.94866
20
190.65867
30
0
70
32
0
VERTEX
8
0
62
3
10
-10
20
190.65867
30
0
70
32
0
VERTEX
8
0
62
3
10
-10
20
-10
30
0
70
32
0
SEQEND
8
0
0
ENDSEC
0
EOF
